<?xml version="1.0" encoding="UTF-8"?>
<svg width="1200pt" height="1200pt" version="1.1" viewBox="0 0 1200 1200" xmlns="http://www.w3.org/2000/svg">
 <g>
  <path d="m687.98 646.74h-175.97c-118.09 0-213.84 95.723-213.84 213.82v18.898c0 24.863 20.16 45.047 45.035 45.047h513.54c24.898 0 45.047-20.172 45.047-45.047v-18.898c0.003906-118.09-95.723-213.82-213.81-213.82z"/>
  <path d="m599.99 601.32c89.988 0 162.94-72.91 162.94-162.9 0-89.977-72.949-162.94-162.94-162.94-89.977 0-162.94 72.961-162.94 162.94 0.011719 89.984 72.973 162.9 162.94 162.9z"/>
  <path d="m977.69 608.11h-112.45c-30.625 0-57.445 11.965-80.219 28.957 64.223 27.203 113.34 81.77 135.23 148.57h165.31c15.91 0 28.789-12.898 28.789-28.801v-12.086c0-75.477-61.188-136.64-136.66-136.64z"/>
  <path d="m921.46 579.09c57.504 0 104.12-46.609 104.12-104.11s-46.621-104.12-104.12-104.12c-57.504 0-104.12 46.621-104.12 104.12s46.621 104.11 104.12 104.11z"/>
  <path d="m415 637.07c-22.777-17.004-49.621-28.957-80.219-28.957h-112.46c-75.457 0-136.64 61.164-136.64 136.64v12.086c0 15.91 12.875 28.801 28.789 28.801h165.31c21.875-66.805 70.977-121.37 135.23-148.57z"/>
  <path d="m278.53 579.09c57.504 0 104.12-46.609 104.12-104.11s-46.621-104.12-104.12-104.12-104.12 46.621-104.12 104.12 46.621 104.11 104.12 104.11z"/>
 </g>
</svg>
